<svg
  xmlns="http://www.w3.org/2000/svg"
  width="36px"
  height="36px"
  viewBox="0 0 223 223"
  fill="none"
>
  <path
    d="M223.005 112C223.005 113.813 222.958 115.63 222.87 117.443C222.781 119.26 222.646 121.073 222.469 122.88C222.292 124.688 222.068 126.49 221.802 128.286C221.536 130.083 221.224 131.87 220.87 133.656C220.516 135.438 220.12 137.208 219.677 138.969C219.234 140.734 218.75 142.484 218.224 144.219C217.698 145.958 217.125 147.682 216.516 149.396C215.901 151.104 215.25 152.802 214.552 154.479C213.859 156.156 213.125 157.818 212.349 159.458C211.568 161.099 210.755 162.724 209.896 164.328C209.042 165.927 208.146 167.51 207.214 169.068C206.276 170.625 205.307 172.161 204.297 173.672C203.286 175.182 202.24 176.667 201.161 178.125C200.078 179.583 198.958 181.016 197.807 182.422C196.656 183.823 195.469 185.198 194.25 186.547C193.026 187.891 191.776 189.208 190.49 190.49C189.208 191.776 187.891 193.026 186.547 194.25C185.198 195.469 183.823 196.656 182.422 197.807C181.016 198.958 179.583 200.078 178.125 201.161C176.667 202.24 175.182 203.286 173.672 204.297C172.161 205.307 170.625 206.276 169.068 207.214C167.51 208.146 165.927 209.042 164.328 209.896C162.724 210.755 161.099 211.568 159.458 212.344C157.818 213.125 156.156 213.859 154.479 214.552C152.802 215.25 151.104 215.901 149.396 216.516C147.682 217.125 145.958 217.698 144.219 218.224C142.484 218.75 140.734 219.234 138.969 219.677C137.208 220.12 135.437 220.516 133.656 220.87C131.87 221.224 130.083 221.536 128.286 221.802C126.49 222.068 124.687 222.292 122.88 222.469C121.073 222.646 119.26 222.781 117.443 222.87C115.63 222.958 113.812 223.005 112 223.005C110.182 223.005 108.365 222.958 106.552 222.87C104.734 222.781 102.927 222.646 101.12 222.469C99.3073 222.292 97.5052 222.068 95.7083 221.802C93.9114 221.536 92.125 221.224 90.3437 220.87C88.5573 220.516 86.7864 220.12 85.026 219.677C83.2656 219.234 81.5104 218.75 79.776 218.224C78.0364 217.698 76.3125 217.125 74.5989 216.516C72.8906 215.901 71.1979 215.25 69.5156 214.552C67.8385 213.859 66.1771 213.125 64.5364 212.344C62.8958 211.568 61.2708 210.755 59.6719 209.896C58.0677 209.042 56.4896 208.146 54.9271 207.214C53.3698 206.276 51.8385 205.307 50.3281 204.297C48.8177 203.286 47.3281 202.24 45.8698 201.161C44.4114 200.078 42.9791 198.958 41.5781 197.807C40.1719 196.656 38.7969 195.469 37.4479 194.25C36.1041 193.026 34.7864 191.776 33.5052 190.49C32.2187 189.208 30.9687 187.891 29.75 186.547C28.526 185.198 27.3437 183.823 26.1875 182.422C25.0364 181.016 23.9166 179.583 22.8385 178.125C21.7552 176.667 20.7083 175.182 19.6979 173.672C18.6875 172.161 17.7187 170.625 16.7864 169.068C15.8489 167.51 14.9531 165.927 14.0989 164.328C13.2448 162.724 12.4271 161.099 11.651 159.458C10.875 157.818 10.1354 156.156 9.44269 154.479C8.74477 152.802 8.09373 151.104 7.47915 149.396C6.86977 147.682 6.29685 145.958 5.77081 144.219C5.24477 142.484 4.7604 140.734 4.31769 138.969C3.87498 137.208 3.47915 135.438 3.12498 133.656C2.77081 131.87 2.45831 130.083 2.19269 128.286C1.92706 126.49 1.70311 124.688 1.52602 122.88C1.34894 121.073 1.21352 119.26 1.12498 117.443C1.03644 115.63 0.989563 113.813 0.989563 112C0.989563 110.182 1.03644 108.365 1.12498 106.552C1.21352 104.734 1.34894 102.927 1.52602 101.12C1.70311 99.3073 1.92706 97.5052 2.19269 95.7083C2.45831 93.9115 2.77081 92.125 3.12498 90.3438C3.47915 88.5573 3.87498 86.7865 4.31769 85.0261C4.7604 83.2656 5.24477 81.5104 5.77081 79.7761C6.29685 78.0365 6.86977 76.3125 7.47915 74.599C8.09373 72.8906 8.74477 71.1979 9.44269 69.5156C10.1354 67.8386 10.875 66.1771 11.651 64.5365C12.4271 62.8958 13.2448 61.2708 14.0989 59.6719C14.9531 58.0677 15.8489 56.4896 16.7864 54.9271C17.7187 53.3698 18.6875 51.8386 19.6979 50.3281C20.7083 48.8177 21.7552 47.3281 22.8385 45.8698C23.9166 44.4115 25.0364 42.9792 26.1875 41.5781C27.3437 40.1719 28.526 38.7969 29.75 37.4479C30.9687 36.1042 32.2187 34.7865 33.5052 33.5052C34.7864 32.2188 36.1041 30.9688 37.4479 29.75C38.7969 28.5261 40.1719 27.3438 41.5781 26.1875C42.9791 25.0365 44.4114 23.9167 45.8698 22.8386C47.3281 21.7552 48.8177 20.7083 50.3281 19.6979C51.8385 18.6875 53.3698 17.7188 54.9271 16.7865C56.4896 15.849 58.0677 14.9531 59.6719 14.099C61.2708 13.2448 62.8958 12.4271 64.5364 11.6511C66.1771 10.875 67.8385 10.1354 69.5156 9.44272C71.1979 8.7448 72.8906 8.09376 74.5989 7.47918C76.3125 6.8698 78.0364 6.29689 79.776 5.77084C81.5104 5.2448 83.2656 4.76043 85.026 4.31772C86.7864 3.87501 88.5573 3.47918 90.3437 3.12501C92.125 2.77084 93.9114 2.45834 95.7083 2.19272C97.5052 1.92709 99.3073 1.70314 101.12 1.52605C102.927 1.34897 104.734 1.21355 106.552 1.12501C108.365 1.03647 110.182 0.989594 112 0.989594C113.812 0.989594 115.63 1.03647 117.443 1.12501C119.26 1.21355 121.073 1.34897 122.88 1.52605C124.687 1.70314 126.49 1.92709 128.286 2.19272C130.083 2.45834 131.87 2.77084 133.656 3.12501C135.437 3.47918 137.208 3.87501 138.969 4.31772C140.734 4.76043 142.484 5.2448 144.219 5.77084C145.958 6.29689 147.682 6.8698 149.396 7.47918C151.104 8.09376 152.802 8.7448 154.479 9.44272C156.156 10.1354 157.818 10.875 159.458 11.6511C161.099 12.4271 162.724 13.2448 164.328 14.099C165.927 14.9531 167.51 15.849 169.068 16.7865C170.625 17.7188 172.161 18.6875 173.672 19.6979C175.182 20.7083 176.667 21.7552 178.125 22.8386C179.583 23.9167 181.016 25.0365 182.422 26.1875C183.823 27.3438 185.198 28.5261 186.547 29.75C187.891 30.9688 189.208 32.2188 190.49 33.5052C191.776 34.7865 193.026 36.1042 194.25 37.4479C195.469 38.7969 196.656 40.1719 197.807 41.5781C198.958 42.9792 200.078 44.4115 201.161 45.8698C202.24 47.3281 203.286 48.8177 204.297 50.3281C205.307 51.8386 206.276 53.3698 207.214 54.9271C208.146 56.4896 209.042 58.0677 209.896 59.6719C210.755 61.2708 211.568 62.8958 212.349 64.5365C213.125 66.1771 213.859 67.8386 214.552 69.5156C215.25 71.1979 215.901 72.8906 216.516 74.599C217.125 76.3125 217.698 78.0365 218.224 79.7761C218.75 81.5104 219.234 83.2656 219.677 85.0261C220.12 86.7865 220.516 88.5573 220.87 90.3438C221.224 92.125 221.536 93.9115 221.802 95.7083C222.068 97.5052 222.292 99.3073 222.469 101.12C222.646 102.927 222.781 104.734 222.87 106.552C222.958 108.365 223.005 110.182 223.005 112Z"
    fill="#0FB73B"
  />
  <path
    d="M112 196.021C100.656 196.021 89.651 193.797 79.2916 189.417C69.2864 185.182 60.2969 179.125 52.5833 171.411C44.8698 163.698 38.8125 154.714 34.5781 144.703C30.1979 134.344 27.9739 123.339 27.9739 112C27.9739 100.656 30.1979 89.6511 34.5781 79.2917C38.8125 69.2865 44.8698 60.2969 52.5833 52.5833C60.2969 44.8698 69.2864 38.8125 79.2916 34.5781C89.651 30.1979 100.656 27.974 112 27.974C123.339 27.974 134.344 30.1979 144.703 34.5781C154.714 38.8125 163.698 44.8698 171.411 52.5833C179.125 60.2969 185.182 69.2865 189.417 79.2917C193.797 89.6511 196.021 100.656 196.021 112C196.021 123.339 193.797 134.344 189.417 144.703C185.182 154.714 179.125 163.698 171.411 171.411C163.698 179.125 154.714 185.182 144.703 189.417C134.344 193.797 123.339 196.021 112 196.021ZM112 39.25C92.5677 39.25 74.2969 46.8177 60.5573 60.5573C46.8177 74.2969 39.25 92.5677 39.25 112C39.25 131.427 46.8177 149.698 60.5573 163.438C74.2969 177.177 92.5677 184.745 112 184.745C131.427 184.745 149.698 177.177 163.437 163.438C177.177 149.698 184.745 131.427 184.745 112C184.745 92.5677 177.177 74.2969 163.437 60.5573C149.698 46.8177 131.427 39.25 112 39.25Z"
    fill="white"
  />
  <path
    d="M148.797 144.792L149.651 143.943C153.839 139.75 153.281 132.807 148.474 129.344L141.396 124.234C136.885 120.979 130.682 121.479 126.755 125.411L125.797 126.365C123.146 129.016 119.068 129.604 115.786 127.797C107.615 123.302 101.099 116.745 96.2448 108.12C94.3802 104.813 94.9219 100.677 97.6094 97.9896L98.4688 97.1302C102.401 93.1979 102.901 86.9948 99.6511 82.4896L94.5417 75.4063C91.0729 70.599 84.1302 70.0417 79.9427 74.2292L79.3282 74.8386C70.6354 83.5365 69.0209 97.0521 75.4271 107.547C85.9375 124.75 99.4219 138.51 116.031 148.656C126.547 155.078 140.089 153.505 148.797 144.792Z"
    fill="white"
  />
</svg>
