<svg xmlns="http://www.w3.org/2000/svg" width="70" height="70" viewBox="0 0 55 55" fill="none">
<mask id="mask0_23_564" style="mask-type:luminance" maskUnits="userSpaceOnUse" x="0" y="0" width="55" height="55">
<path d="M0 0H55V54.4296H0V0Z" fill="white"/>
</mask>
<g mask="url(#mask0_23_564)">
<path d="M54.6231 27.2666C54.6231 28.1586 54.5816 29.0505 54.4918 29.939C54.4053 30.8275 54.274 31.7091 54.1011 32.5838C53.9248 33.4584 53.7104 34.3262 53.4511 35.1801C53.1919 36.034 52.8911 36.8741 52.5488 37.6969C52.2066 38.5232 51.8263 39.3287 51.4045 40.1169C50.9827 40.9052 50.5264 41.6692 50.0286 42.4125C49.5342 43.1523 49.0018 43.8714 48.4348 44.5594C47.8678 45.2508 47.2697 45.9111 46.6405 46.5438C46.0079 47.173 45.3476 47.7711 44.6561 48.338C43.9682 48.905 43.2491 49.4374 42.5092 49.9318C41.7659 50.4296 41.0019 50.886 40.2137 51.3078C39.4254 51.7295 38.6199 52.1098 37.7937 52.4521C36.9709 52.7943 36.1308 53.0951 35.2768 53.3544C34.4229 53.6137 33.5552 53.828 32.6805 54.0043C31.8059 54.1772 30.9243 54.3086 30.0358 54.395C29.1473 54.4849 28.2553 54.5264 27.3634 54.5264C26.468 54.5264 25.5795 54.4849 24.691 54.395C23.8025 54.3086 22.9209 54.1772 22.0428 54.0043C21.1682 53.828 20.3039 53.6137 19.45 53.3544C18.5926 53.0951 17.7559 52.7943 16.9297 52.4521C16.1034 52.1098 15.2979 51.7295 14.5097 51.3078C13.7249 50.886 12.9574 50.4296 12.2176 49.9318C11.4743 49.4374 10.7587 48.905 10.0672 48.338C9.37579 47.7711 8.71547 47.173 8.08626 46.5438C7.4536 45.9111 6.85551 45.2508 6.28854 44.5594C5.72156 43.8714 5.18916 43.1523 4.69479 42.4125C4.19696 41.6692 3.74061 40.9052 3.31884 40.1169C2.89706 39.3287 2.51678 38.5232 2.17452 37.6969C1.83226 36.8741 1.53494 36.034 1.27565 35.1801C1.01637 34.3262 0.798566 33.4584 0.625708 32.5838C0.449393 31.7091 0.318021 30.8275 0.231592 29.939C0.145162 29.0505 0.10022 28.1586 0.10022 27.2666C0.10022 26.3712 0.145162 25.4828 0.231592 24.5943C0.318021 23.7058 0.449393 22.8242 0.625708 21.9461C0.798566 21.0714 1.01637 20.2071 1.27565 19.3532C1.53494 18.4958 1.83226 17.6592 2.17452 16.8329C2.51678 16.0067 2.89706 15.2011 3.31884 14.4129C3.74061 13.6281 4.19696 12.8607 4.69479 12.1208C5.18916 11.3775 5.72156 10.6619 6.28854 9.97046C6.85551 9.27903 7.4536 8.61871 8.08626 7.98951C8.71547 7.35685 9.37579 6.75876 10.0672 6.19178C10.7587 5.62481 11.4743 5.09241 12.2176 4.59803C12.9574 4.1002 13.7249 3.64386 14.5097 3.22208C15.2979 2.80031 16.1034 2.42002 16.9297 2.07776C17.7559 1.7355 18.5926 1.43819 19.45 1.1789C20.3039 0.919612 21.1682 0.701811 22.0428 0.528952C22.9209 0.352638 23.8025 0.221265 24.691 0.134836C25.5795 0.0484071 26.468 0.00346375 27.3634 0.00346375C28.2553 0.00346375 29.1473 0.0484071 30.0358 0.134836C30.9243 0.221265 31.8059 0.352638 32.6805 0.528952C33.5552 0.701811 34.4229 0.919612 35.2768 1.1789C36.1308 1.43819 36.9709 1.7355 37.7937 2.07776C38.6199 2.42002 39.4254 2.80031 40.2137 3.22208C41.0019 3.64386 41.7659 4.1002 42.5092 4.59803C43.2491 5.09241 43.9682 5.62481 44.6561 6.19178C45.3476 6.75876 46.0079 7.35685 46.6405 7.98951C47.2697 8.61871 47.8678 9.27903 48.4348 9.97046C49.0018 10.6619 49.5342 11.3775 50.0286 12.1208C50.5264 12.8607 50.9827 13.6281 51.4045 14.4129C51.8263 15.2011 52.2066 16.0067 52.5488 16.8329C52.8911 17.6592 53.1919 18.4958 53.4511 19.3532C53.7104 20.2071 53.9248 21.0714 54.1011 21.9461C54.274 22.8242 54.4053 23.7058 54.4918 24.5943C54.5816 25.4828 54.6231 26.3712 54.6231 27.2666Z" fill="#56D96F"/>
</g>
<path d="M41.4376 34.4022L37.4722 30.4403C36.6217 29.5899 35.2493 29.576 34.385 30.4092L31.2701 33.4066C31.2701 33.4066 27.9374 31.9788 25.2926 29.334C22.6479 26.6928 21.2201 23.3566 21.2201 23.3566L24.2174 20.2417C25.0506 19.3774 25.0368 18.0049 24.1898 17.1544L20.2244 13.1925C19.3636 12.3317 17.9669 12.3317 17.1061 13.1925L13.3792 16.9194C12.8088 17.4898 12.5426 18.2988 12.674 19.0904C14.3196 28.9537 25.6729 40.3105 35.5362 41.9527C36.3313 42.084 37.1403 41.8178 37.7073 41.2509L41.4376 37.5206C42.2984 36.6598 42.2984 35.2631 41.4376 34.4022Z" fill="white"/>
</svg>
