<svg width="30" height="29" viewBox="0 0 30 29" fill="none" xmlns="http://www.w3.org/2000/svg">
<mask id="mask0_34_1451" style="mask-type:luminance" maskUnits="userSpaceOnUse" x="0" y="0" width="30" height="29">
<path d="M0.182281 0.114594H29.1823V28.1146H0.182281V0.114594Z" fill="white"/>
</mask>
<g mask="url(#mask0_34_1451)">
<path d="M11.4635 0.145844C5.33853 0.145844 0.244781 4.59376 0.244781 10.1927C0.244781 12.8802 1.44791 15.3177 3.34895 17.1198L3.29166 17.4115C2.85936 18.6719 1.80728 19.3854 1.17707 19.6094C0.812491 19.7396 0.510407 19.9375 0.34374 20.2813C0.177073 20.625 0.28124 21.099 0.53124 21.3438C1.11457 21.9323 1.87499 21.875 2.42707 21.8802C4.51041 21.9063 6.96874 20.8125 8.45832 20.0677L8.47395 20.0625L8.98437 19.7656L8.79166 19.7031L8.81249 19.7083C9.64062 19.9011 10.5104 19.9636 11.3646 19.9636C16.75 19.9636 21.3854 16.7448 22.4062 12.1146V12.1094C22.5469 11.4948 22.6198 10.849 22.6198 10.1927C22.6198 4.59897 17.5885 0.145844 11.4635 0.145844ZM11.4635 1.42709C16.9687 1.42709 21.3385 5.3698 21.3385 10.1927C21.3385 10.7604 21.276 11.3073 21.1614 11.8333C20.2864 15.7917 16.2448 18.6823 11.3646 18.6823C10.5729 18.6823 9.79686 18.625 9.10416 18.4636L8.82291 18.3802L7.8802 18.9271C6.46353 19.6354 4.02603 20.6198 2.4427 20.6042C2.22395 20.6042 2.20312 20.5573 2.05207 20.5417C2.96353 20.099 4.01041 19.2917 4.51041 17.8073L4.52082 17.7761L4.74999 16.6979L4.46874 16.4479C2.63541 14.849 1.52082 12.625 1.52082 10.1927C1.52082 5.37501 5.95312 1.42709 11.4635 1.42709ZM5.99999 5.90105V7.17709H16.8646V5.90105H5.99999ZM5.99999 9.09376V10.375H16.8646V9.09376H5.99999ZM23.7604 11.7761C23.7239 11.9844 23.7031 12.1875 23.6614 12.3906C23.6094 12.6094 23.5417 12.8229 23.4792 13.0417C26.4219 14.1771 28.3594 16.4688 28.3594 19.0104C28.3594 20.8386 27.4114 22.5417 25.6823 23.8177L25.3385 24.0729L25.4427 24.4948C25.7864 25.8177 27 26.5 27.8333 26.9531C26.5104 27.1302 23.625 26.8333 22.1771 25.1198L21.9375 24.8281L21.5677 24.9063C20.9844 25.0208 20.3125 25.0781 19.5 25.0781C15.526 25.0781 12.2969 23.5365 11.0417 21.2292C10.5208 21.2188 10.0364 21.1875 9.58332 21.1302C10.7708 24.2708 14.5833 26.3542 19.5 26.3542C20.2396 26.3542 20.8802 26.3125 21.4583 26.224C22.8698 27.6511 25.1667 28.2708 27.0312 28.2708C27.151 28.2708 27.276 28.2656 27.3906 28.2604C28.4739 28.2136 29.1771 27.9636 29.4896 27.5208C29.625 27.3229 29.6719 27.0886 29.6198 26.8594C29.5104 26.4011 29.0937 26.1771 28.5104 25.8646C27.9375 25.5521 27.1875 25.1458 26.8333 24.5417C28.625 23.0625 29.6406 21.0729 29.6406 19.0104C29.6406 15.875 27.2969 13.0781 23.7604 11.7761ZM5.99999 12.2917V13.5729H13.6667V12.2917H5.99999ZM21.9896 16.125C21.6667 16.5781 21.3177 17.0052 20.9323 17.4063H23.8958V16.125H21.9896ZM18.5208 19.3229C17.6406 19.8542 16.6719 20.2865 15.6458 20.6042H23.8958V19.3229H18.5208Z" fill="white"/>
</g>
</svg>
