<svg width="36" height="36" viewBox="0 0 36 36" fill="none" xmlns="http://www.w3.org/2000/svg">
<path d="M25.4062 10.4531H23.6771V11.375C23.6771 11.6302 23.5885 11.849 23.4115 12.026C23.2292 12.2083 23.0104 12.2969 22.7604 12.2969C22.5052 12.2969 22.2865 12.2083 22.1042 12.026C21.9271 11.849 21.8385 11.6302 21.8385 11.375V10.4531H19.0729V11.375C19.0729 11.6302 18.9844 11.849 18.8021 12.026C18.625 12.2083 18.4062 12.2969 18.151 12.2969C17.8958 12.2969 17.6823 12.2083 17.5 12.026C17.3229 11.849 17.2292 11.6302 17.2292 11.375V10.4531H14.4687V11.375C14.4687 11.6302 14.3802 11.849 14.1979 12.026C14.0208 12.2083 13.8021 12.2969 13.5469 12.2969C13.2917 12.2969 13.0781 12.2083 12.8958 12.026C12.7187 11.849 12.625 11.6302 12.625 11.375V10.4531H10.901C10.6146 10.4531 10.3698 10.5573 10.1667 10.7552C9.96354 10.9583 9.86458 11.2031 9.86458 11.4896V14.1406H26.4427V11.4896C26.4427 11.2031 26.3385 10.9583 26.1354 10.7552C25.9375 10.5573 25.6927 10.4531 25.4062 10.4531Z" fill="black"/>
<path d="M9.86458 24.1563C9.86458 24.4427 9.96354 24.6875 10.1667 24.8854C10.3698 25.0886 10.6146 25.1927 10.901 25.1927H25.4062C25.6927 25.1927 25.9375 25.0886 26.1354 24.8854C26.3385 24.6875 26.4427 24.4427 26.4427 24.1563V15.9792H9.86458V24.1563ZM14.7396 19.9323C14.9167 19.7552 15.1354 19.6667 15.3906 19.6667C15.6458 19.6667 15.8594 19.7552 16.0417 19.9323L17.2292 21.125L20.2656 18.0938C20.4427 17.9167 20.6615 17.8334 20.9115 17.8334C21.1615 17.8386 21.3802 17.9271 21.5573 18.1042C21.7344 18.2813 21.8229 18.4948 21.8229 18.7448C21.8281 19 21.7396 19.2136 21.5677 19.3959L17.8802 23.0781C17.7031 23.2604 17.4844 23.349 17.2292 23.349C16.9792 23.349 16.7604 23.2604 16.5781 23.0781L14.7396 21.2344C14.5573 21.0573 14.4687 20.8386 14.4687 20.5834C14.4687 20.3334 14.5573 20.1146 14.7396 19.9323Z" fill="black"/>
<mask id="mask0_35_20" style="mask-type:luminance" maskUnits="userSpaceOnUse" x="0" y="0" width="36" height="36">
<path d="M0.651031 0.322937H35.651V35.3229H0.651031V0.322937Z" fill="white"/>
</mask>
<g mask="url(#mask0_35_20)">
<path d="M18.151 0.322937C17.0052 0.322937 15.8646 0.432312 14.7396 0.65627C13.6094 0.885436 12.5156 1.21356 11.4531 1.65627C10.3958 2.09377 9.38541 2.63544 8.43228 3.27085C7.47395 3.91148 6.58853 4.63544 5.77603 5.44794C4.96353 6.26044 4.23957 7.14585 3.60416 8.09898C2.96353 9.05731 2.42186 10.0625 1.98436 11.125C1.54686 12.1875 1.21353 13.2813 0.989573 14.4063C0.765614 15.5365 0.651031 16.6719 0.651031 17.8229C0.651031 18.974 0.765614 20.1094 0.989573 21.2344C1.21353 22.3646 1.54686 23.4584 1.98436 24.5209C2.42186 25.5834 2.96353 26.5886 3.60416 27.5469C4.23957 28.5 4.96353 29.3854 5.77603 30.1979C6.58853 31.0104 7.47395 31.7344 8.43228 32.375C9.38541 33.0104 10.3958 33.5521 11.4531 33.9896C12.5156 34.4323 13.6094 34.7604 14.7396 34.9844C15.8646 35.2084 17.0052 35.3229 18.151 35.3229C19.3021 35.3229 20.4375 35.2084 21.5677 34.9844C22.6927 34.7604 23.7864 34.4323 24.8489 33.9896C25.9114 33.5521 26.9219 33.0104 27.875 32.375C28.8281 31.7344 29.7135 31.0104 30.526 30.1979C31.3385 29.3854 32.0625 28.5 32.7031 27.5469C33.3437 26.5886 33.8802 25.5834 34.3229 24.5209C34.7604 23.4584 35.0937 22.3646 35.3177 21.2344C35.5417 20.1094 35.651 18.974 35.651 17.8229C35.651 16.6719 35.5364 15.5365 35.3125 14.4115C35.0885 13.2813 34.7552 12.1875 34.3177 11.1302C33.875 10.0677 33.3333 9.05731 32.6979 8.10419C32.0573 7.15106 31.3333 6.26565 30.5208 5.45315C29.7083 4.64065 28.8229 3.91669 27.8698 3.27606C26.9167 2.64065 25.9062 2.09898 24.8489 1.66148C23.7864 1.21877 22.6927 0.885436 21.5677 0.661479C20.4375 0.43752 19.3021 0.322937 18.151 0.322937ZM28.2864 24.1563C28.2812 24.5365 28.2083 24.9011 28.0625 25.2552C27.9167 25.6094 27.7083 25.9219 27.4375 26.1875C27.1719 26.4584 26.8594 26.6667 26.5052 26.8125C26.1562 26.9584 25.7864 27.0313 25.4062 27.0313H10.901C10.5208 27.0313 10.151 26.9584 9.79687 26.8125C9.44791 26.6667 9.13541 26.4584 8.86457 26.1875C8.59374 25.9219 8.38541 25.6094 8.23957 25.2552C8.09374 24.9011 8.02082 24.5365 8.02082 24.1563V11.4896C8.02082 11.1094 8.09374 10.7396 8.23957 10.3906C8.38541 10.0365 8.59374 9.72398 8.86457 9.45835C9.13541 9.18752 9.44791 8.97919 9.79687 8.83335C10.151 8.68752 10.5208 8.6146 10.901 8.6094H12.625V7.69273C12.625 7.43752 12.7187 7.21877 12.8958 7.04169C13.0781 6.8594 13.2917 6.77085 13.5469 6.77085C13.8021 6.77085 14.0208 6.8594 14.1979 7.04169C14.3802 7.21877 14.4687 7.43752 14.4687 7.69273V8.6094H17.2292V7.69273C17.2292 7.43752 17.3229 7.21877 17.5 7.04169C17.6823 6.8594 17.8958 6.77085 18.151 6.77085C18.4062 6.77085 18.625 6.8594 18.8021 7.04169C18.9844 7.21877 19.0729 7.43752 19.0729 7.69273V8.6094H21.8385V7.69273C21.8385 7.43752 21.9271 7.21877 22.1042 7.04169C22.2864 6.8594 22.5052 6.77085 22.7604 6.77085C23.0104 6.77085 23.2292 6.8594 23.4114 7.04169C23.5885 7.21877 23.6771 7.43752 23.6771 7.69273V8.6094H25.4062C25.7864 8.6146 26.1562 8.68752 26.5052 8.83335C26.8594 8.97919 27.1719 9.18752 27.4375 9.45835C27.7083 9.72398 27.9167 10.0365 28.0625 10.3906C28.2083 10.7396 28.2812 11.1094 28.2864 11.4896V24.1563Z" fill="black"/>
</g>
</svg>
